<?xml version="1.0" encoding="UTF-8" standalone="no"?>
<!-- Created with Inkscape (http://www.inkscape.org/) -->

<svg
   xmlns:dc="http://purl.org/dc/elements/1.1/"
   xmlns:cc="http://creativecommons.org/ns#"
   xmlns:rdf="http://www.w3.org/1999/02/22-rdf-syntax-ns#"
   xmlns:svg="http://www.w3.org/2000/svg"
   xmlns="http://www.w3.org/2000/svg"
   xmlns:sodipodi="http://sodipodi.sourceforge.net/DTD/sodipodi-0.dtd"
   xmlns:inkscape="http://www.inkscape.org/namespaces/inkscape"
   id="svg2"
   version="1.1"
   inkscape:version="0.91 r13725"
   xml:space="preserve"
   width="1000"
   height="1000"
   viewBox="0 0 1000 1000"
   sodipodi:docname="kreitek-logo-new-centrado-sinfondo.svg"><metadata
     id="metadata8"><rdf:RDF><cc:Work
         rdf:about=""><dc:format>image/svg+xml</dc:format><dc:type
           rdf:resource="http://purl.org/dc/dcmitype/StillImage" /><dc:title></dc:title></cc:Work></rdf:RDF></metadata><defs
     id="defs6"><clipPath
       clipPathUnits="userSpaceOnUse"
       id="clipPath18"><path
         d="m 0,3753.87 0,0 0,4246.13 3515.2,0 0,-1941.87 -951.91,0 c -219.15,0 -396.82,-177.66 -396.82,-396.82 l 0,-1415.19 -2166.47,0 0,-492.25"
         id="path20"
         inkscape:connector-curvature="0" /></clipPath><clipPath
       clipPathUnits="userSpaceOnUse"
       id="clipPath30"><path
         d="m 8000,4246.14 -1858.75,0 0,1415.17 0,0 c 0,219.16 -177.66,396.82 -396.82,396.82 l -1259.63,0 0,1941.87 -969.6,0 0,0 4484.8,0 0,-3753.86"
         id="path32"
         inkscape:connector-curvature="0" /></clipPath><clipPath
       clipPathUnits="userSpaceOnUse"
       id="clipPath42"><path
         d="m 4484.8,6058.13 -969.6,0 0,1941.87 969.6,0 0,-1941.87"
         id="path44"
         inkscape:connector-curvature="0" /></clipPath><clipPath
       clipPathUnits="userSpaceOnUse"
       id="clipPath54"><path
         d="M 3515.2,0 0,0 l 0,3753.87 2166.47,0 0,-1273.7 0,0 c 0,-219.14 177.67,-396.83 396.82,-396.83 l 951.91,0 0,-199.08 C 1895.36,1858.6 667.855,1736.27 667.855,1589.22 c 0,-147.04 1227.505,-269.37 2847.345,-295.03 L 3515.2,0"
         id="path56"
         inkscape:connector-curvature="0" /></clipPath><clipPath
       clipPathUnits="userSpaceOnUse"
       id="clipPath66"><path
         d="m 0,3753.87 2166.47,0 0,492.25 -2166.47,0 0,-492.25 z"
         id="path68"
         inkscape:connector-curvature="0" /></clipPath><clipPath
       clipPathUnits="userSpaceOnUse"
       id="clipPath78"><path
         d="m 8000,0 -4484.8,0 969.58,0 0,1290.62 c 1764.2,14.6 3143.77,142.71 3143.77,298.6 0,155.89 -1379.57,284.01 -3143.77,298.6 l 0,195.52 1259.65,0 c 219.16,0 396.82,177.69 396.82,396.83 l 0,1273.69 1858.75,0 0,492.28 L 8000,0"
         id="path80"
         inkscape:connector-curvature="0" /></clipPath><clipPath
       clipPathUnits="userSpaceOnUse"
       id="clipPath90"><path
         d="m 6141.25,3753.86 1858.75,0 0,492.281 -1858.75,0 0,-492.281 z"
         id="path92"
         inkscape:connector-curvature="0" /></clipPath><clipPath
       clipPathUnits="userSpaceOnUse"
       id="clipPath102"><path
         d="m 4484.78,0 -969.58,0 0,1294.19 c 205.31,-3.25 416.79,-4.95 633,-4.95 113.57,0 225.8,0.47 336.58,1.38 L 4484.78,0 m -969.58,1884.26 0,199.08 969.58,0 0,-195.52 c -110.78,0.92 -223.01,1.39 -336.58,1.39 -216.21,0 -427.69,-1.7 -633,-4.95"
         id="path104"
         inkscape:connector-curvature="0" /></clipPath><clipPath
       clipPathUnits="userSpaceOnUse"
       id="clipPath178"><path
         d="m 5744.43,2083.34 -1259.65,0 -969.58,0 -951.91,0 c -219.15,0 -396.82,177.69 -396.82,396.83 l 0,3181.14 c 0,219.16 177.67,396.82 396.82,396.82 l 3181.14,0 c 219.16,0 396.82,-177.66 396.82,-396.82 l 0,-1415.17 0,-492.28 0,-1273.69 c 0,-219.14 -177.66,-396.83 -396.82,-396.83"
         id="path180"
         inkscape:connector-curvature="0" /></clipPath><clipPath
       clipPathUnits="userSpaceOnUse"
       id="clipPath214"><path
         d="m 3515.2,1294.19 c -1619.84,25.66 -2847.345,147.99 -2847.345,295.03 0,147.05 1227.505,269.38 2847.345,295.04 l 0,-590.07"
         id="path216"
         inkscape:connector-curvature="0" /></clipPath><clipPath
       clipPathUnits="userSpaceOnUse"
       id="clipPath226"><path
         d="m 4484.78,1290.62 0,597.2 c 1764.2,-14.59 3143.77,-142.71 3143.77,-298.6 0,-155.89 -1379.57,-284 -3143.77,-298.6"
         id="path228"
         inkscape:connector-curvature="0" /></clipPath><clipPath
       clipPathUnits="userSpaceOnUse"
       id="clipPath238"><path
         d="m 4148.2,1289.24 c -216.21,0 -427.69,1.7 -633,4.95 l 0,590.07 c 205.31,3.25 416.79,4.95 633,4.95 113.57,0 225.8,-0.47 336.58,-1.39 l 0,-597.2 c -110.78,-0.91 -223.01,-1.38 -336.58,-1.38"
         id="path240"
         inkscape:connector-curvature="0" /></clipPath></defs><sodipodi:namedview
     pagecolor="#ffffff"
     bordercolor="#666666"
     borderopacity="1"
     objecttolerance="10"
     gridtolerance="10"
     guidetolerance="10"
     inkscape:pageopacity="0"
     inkscape:pageshadow="2"
     inkscape:window-width="1920"
     inkscape:window-height="1018"
     id="namedview4"
     showgrid="false"
     inkscape:zoom="0.944"
     inkscape:cx="319.96648"
     inkscape:cy="439.42529"
     inkscape:window-x="-8"
     inkscape:window-y="-8"
     inkscape:window-maximized="1"
     inkscape:current-layer="g10"
     showguides="true"
     inkscape:guide-bbox="true" /><g
     id="g10"
     inkscape:groupmode="layer"
     inkscape:label="ink_ext_XXXXXX"
     transform="matrix(1.25,0,0,-1.25,0,1000)"><flowRoot
       xml:space="preserve"
       id="flowRoot3572"
       style="fill:black;stroke:none;stroke-opacity:1;stroke-width:1px;stroke-linejoin:miter;stroke-linecap:butt;fill-opacity:1;font-family:sans-serif;font-style:normal;font-weight:normal;font-size:40px;line-height:125%;letter-spacing:0px;word-spacing:0px"><flowRegion
         id="flowRegion3574"><rect
           id="rect3576"
           width="430.70593"
           height="78.65065"
           x="300.37057"
           y="399.25885" /></flowRegion><flowPara
         id="flowPara3578" /></flowRoot><text
       xml:space="preserve"
       style="font-style:normal;font-weight:normal;font-size:43.49608994px;line-height:125%;font-family:sans-serif;letter-spacing:0px;word-spacing:0px;fill:#1f545d;fill-opacity:1;stroke:none;stroke-width:1px;stroke-linecap:butt;stroke-linejoin:miter;stroke-opacity:1"
       x="237.26057"
       y="-378.92676"
       id="text3580"
       sodipodi:linespacing="125%"
       transform="scale(1,-1)"><tspan
         sodipodi:role="line"
         id="tspan3582"
         x="237.26057"
         y="-378.92676"
         style="font-style:normal;font-variant:normal;font-weight:normal;font-stretch:normal;font-size:97.86619568px;font-family:'Fantasque Sans Mono';-inkscape-font-specification:'Fantasque Sans Mono';fill:#1f545d;fill-opacity:1">KREITEK</tspan></text>
<path
       style="fill:#1f545d;fill-opacity:1;fill-rule:nonzero;stroke:none"
       d="m 362.83017,605.84413 -0.19375,-37.25625 -29.92969,-0.0953 -0.0203,5.4375 c -0.0192,5.25216 -4.46182,9.5111 -9.90313,9.49376 l -20.49531,-0.0656 c -5.4413,-0.0174 -9.85202,-4.3041 -9.83281,-9.55625 l 0.0719,-19.78281 c 0.0192,-5.25216 4.46182,-9.51109 9.90313,-9.49375 l 20.49531,0.0656 c 5.44131,0.0174 9.85202,4.30409 9.83281,9.55625 l -0.0187,5.02813 34.75781,0.11093 c 2.66548,0.008 4.79819,2.10088 4.80938,4.675 l 0.18125,41.88282 -9.65781,0 z m 16.94062,0 0.17813,-95.08126 -19.22969,-0.0609 c -0.18784,-5.6e-4 -0.37252,-0.0137 -0.55469,-0.0344 l -0.0172,4.90626 c -0.0192,5.25217 -4.46181,9.50953 -9.90312,9.49218 l -20.49531,-0.0641 c -5.44131,-0.0174 -9.85359,-4.30564 -9.83438,-9.55781 l 0.0734,-19.78282 c 0.0192,-5.25215 4.46181,-9.51109 9.90312,-9.49375 l 20.49532,0.0656 c 5.44131,0.0174 9.85203,4.3041 9.83281,9.55625 l -0.0203,5.62656 c 0.18226,-0.0196 0.3669,-0.0319 0.55468,-0.0312 l 24.05469,0.0766 c 2.66616,0.008 4.81439,2.09995 4.80937,4.67344 l -0.19531,99.70938 -9.65156,0 z m 17.52031,0 0.50156,-127.95782 -149.65501,-0.38446 c -2.66481,-0.008 -4.81982,-1.98276 -4.81094,-4.40938 0.009,-2.4266 2.17893,-4.385 4.84375,-4.37812 l 154.48002,0.39852 c 2.66616,0.008 4.82042,1.98277 4.81094,4.40938 l -0.51719,132.32188 z m 25.15782,0 0.32187,-130.64219 c 0.006,-2.42661 2.24822,-4.38612 5.00469,-4.37812 l 153.59531,0.48905 c 2.75508,0.009 4.984,1.98278 4.975,4.40938 -0.009,2.4266 -2.25118,4.38613 -5.00625,4.37813 l -148.60625,-0.47344 -0.30625,126.21719 z m 18.13281,0 0.39375,-97.91563 c 0.0103,-2.57348 2.24979,-4.65019 5.00625,-4.64219 l 24.86875,0.0797 c 0.19504,6.2e-4 0.38586,0.0135 0.575,0.0344 l 0.0203,-5.62656 c 0.0192,-5.25216 4.6119,-9.51009 10.2375,-9.4922 l 21.18906,0.0672 c 5.62561,0.0179 10.18639,4.30564 10.16719,9.5578 l -0.0719,19.78438 c -0.0192,5.25218 -4.61189,9.51009 -10.23749,9.49219 l -21.18907,-0.0672 c -5.6256,-0.0179 -10.18638,-4.30563 -10.16718,-9.55781 l 0.0172,-4.90625 c -0.18829,0.0196 -0.37944,0.0318 -0.57344,0.0312 l -19.88124,-0.0641 -0.375,93.225 -9.97969,0 z m 17.67813,0 0.1828,-39.97813 c 0.0118,-2.57413 2.25051,-4.65175 5.00626,-4.64375 l 35.93437,0.11406 0.0188,-5.02812 c 0.0192,-5.25216 4.61034,-9.51009 10.23594,-9.49219 l 21.19063,0.0672 c 5.62559,0.0179 10.18638,4.30565 10.16718,9.55781 l -0.0719,19.78282 c -0.0192,5.25214 -4.6119,9.51164 -10.2375,9.49374 l -21.18907,-0.0687 c -5.62558,-0.0179 -10.18795,-4.30566 -10.16874,-9.55782 l 0.0203,-5.4375 -30.94375,-0.0984 -0.16563,35.28907 -9.97968,0 z m 72.23124,-29.86875 0.0703,-19.35156 -20.72813,-0.0672 -0.0703,19.35313 20.72812,0.0656 z m -207.89531,-2.29219 0.0703,-19.35313 -20.04844,-0.0641 -0.0703,19.35313 z m 179.93907,-56.24219 0.0719,-19.35156 -20.72812,-0.0656 -0.0719,19.35156 20.72813,0.0656 z m -152.47813,-2.11562 0.0703,-19.35156 -20.04843,-0.0641 -0.0719,19.35156 20.05,0.0641 z"
       id="path192-0-4"
       inkscape:connector-curvature="0"
       sodipodi:nodetypes="cccccscccscccccccccccccccccsccccscccccccscscccsccsccccccccccscccccccccccccccccccccccccccccccccccccccccccccccccccc" /><path
       style="fill:#1f545d;fill-opacity:1;fill-rule:nonzero;stroke:none"
       d="m 581.14321,352.5016 -154.33516,-0.89509 c -2.66613,-0.0165 -4.81341,-1.99723 -4.79621,-4.42379 l 0.98366,-138.62751 9.65155,-0.009 -0.9532,134.30404 149.50858,0.86356 c 2.66478,0.0165 4.81282,1.9972 4.79621,4.42377 -0.0167,2.42656 -2.19066,4.38076 -4.85543,4.36377 z m -179.45399,-2.68482 -153.59313,-0.97946 c -2.75504,-0.0176 -4.97697,-1.99862 -4.96027,-4.42519 0.0166,-2.42655 2.26444,-4.37917 5.01948,-4.36237 l 148.60405,0.94648 0.74241,-132.4179 9.97968,-0.009 -0.77274,136.88513 c -0.0137,2.42657 -2.26305,4.37918 -5.01948,4.36237 z m 97.93329,-15.03258 -20.49544,-0.13141 c -5.44123,-0.0348 -9.83841,-4.33436 -9.80245,-9.58642 l 0.0386,-5.6266 c -0.18228,0.019 -0.36695,0.0298 -0.55467,0.0286 l -24.05483,-0.15318 c -2.66612,-0.0165 -4.80811,-2.11596 -4.79488,-4.68942 l 0.53925,-104.88334 c 0.003,-0.41749 0.0678,-0.81901 0.17704,-1.20328 l 9.2953,-0.008 c 0.11641,0.40551 0.18152,0.8318 0.17929,1.27327 l -0.50599,100.2255 19.22825,0.12319 c 0.18782,8.3e-4 0.37264,0.0158 0.55472,0.037 l 0.033,-4.90784 c 0.0359,-5.2521 4.49238,-9.49528 9.93361,-9.46059 l 20.49544,0.12986 c 5.44121,0.0348 9.83841,4.3359 9.80246,9.58798 l -0.13519,19.78295 c -0.0359,5.25205 -4.4924,9.49682 -9.93361,9.46213 z m -151.78523,-2.59828 -21.18921,-0.13547 c -5.62551,-0.0359 -10.17275,-4.33717 -10.13682,-9.58925 l 0.13518,-19.78294 c 0.0359,-5.2521 4.64248,-9.49511 10.268,-9.45931 l 21.18919,0.13391 c 5.62551,0.0358 10.17277,4.3387 10.13683,9.59081 l -0.0331,4.90471 c 0.1883,-0.019 0.37948,-0.0298 0.57341,-0.0286 l 19.87982,0.12728 0.71494,-98.95382 c 8.8e-4,-0.13444 0.0118,-0.26699 0.0246,-0.39845 l 9.93281,-0.009 c 0.0156,0.15522 0.0234,0.31263 0.0223,0.47185 l -0.74667,103.61166 c -0.0186,2.57344 -2.26594,4.64323 -5.02236,4.62644 l -24.86891,-0.15871 c -0.1945,-8.2e-4 -0.38491,-0.0156 -0.57347,-0.037 l -0.0386,5.6266 c -0.0359,5.25208 -4.64247,9.49513 -10.26798,9.45932 z m 151.62951,-7.14376 0.13245,-19.35169 -20.05012,-0.12713 -0.13245,19.35168 z m -151.79304,-2.59828 0.13245,-19.35169 -20.72825,-0.1312 -0.13245,19.35169 z m 179.59592,-45.92851 -20.49544,-0.13142 c -5.44121,-0.0348 -9.83838,-4.33592 -9.80245,-9.58799 l 0.0345,-5.02815 -34.75646,-0.22161 c -2.66545,-0.0165 -4.79189,-2.11682 -4.79489,-4.69097 l -0.0563,-48.33122 9.65312,-0.009 0.0881,43.74368 29.92987,0.1916 0.0373,-5.43752 c 0.0359,-5.25207 4.49081,-9.49684 9.93206,-9.46214 l 20.49543,0.13141 c 5.44122,0.0348 9.83998,4.33593 9.80402,9.58799 l -0.13675,19.78294 c -0.0359,5.25208 -4.49081,9.49682 -9.93205,9.46215 z m -207.2012,-2.95116 -21.18919,-0.13548 c -5.62552,-0.0359 -10.17276,-4.33873 -10.13682,-9.59081 l 0.13518,-19.78294 c 0.0359,-5.25206 4.64247,-9.49511 10.26798,-9.45931 l 21.18919,0.13547 c 5.62551,0.0359 10.17277,4.33718 10.13683,9.58925 l -0.0373,5.43754 30.94239,0.19692 0.32657,-41.34405 9.97968,-0.009 -0.35822,46.07534 c -0.0201,2.57407 -2.26509,4.64323 -5.0208,4.62643 l -35.93304,-0.22835 -0.0345,5.02816 c -0.0359,5.25208 -4.64246,9.49668 -10.26798,9.46088 z m 207.04393,-6.79091 0.13245,-19.35168 -20.04857,-0.12869 -0.13245,19.35169 z m -207.20744,-2.95114 0.13244,-19.35169 -20.72825,-0.13276 -0.13245,19.35169 z"
       id="path192-0-4-3"
       inkscape:connector-curvature="0"
       sodipodi:nodetypes="ccsccccccccccccccsccccccccscccscccccccsccccssccccccccccccccccccccccccccccccccscccccccccccccssccccccccccccccccccccccc" /><path
       d="m 614.61367,248.42876 -11.5,0 c -0.002,-3.923 -0.789,-7.6 -2.21,-10.966 -2.13,-5.043 -5.719,-9.369 -10.223,-12.41 -4.512,-3.041 -9.872,-4.802 -15.749,-4.807 l -318.11401,0 c -3.922,0.002 -7.6,0.789 -10.965,2.21 -5.043,2.131 -9.37,5.72 -12.411,10.224 -3.04,4.513 -4.801,9.873 -4.806,15.749 l 0,318.114 c 0.002,3.923 0.789,7.601 2.21,10.966 2.13,5.043 5.719,9.369 10.224,12.41 4.511,3.04 9.872,4.801 15.748,4.806 l 318.11401,0 c 3.923,-0.002 7.601,-0.789 10.967,-2.21 5.042,-2.13 9.368,-5.719 12.409,-10.223 3.04,-4.512 4.801,-9.872 4.806,-15.749 l 0,-318.114 23,0 0,318.114 c 0.002,7.035 -1.432,13.797 -4.027,19.926 -3.893,9.2 -10.368,16.991 -18.53,22.508 -8.155,5.517 -18.064,8.753 -28.625,8.748 l -318.11401,0 c -7.035,0.002 -13.796,-1.432 -19.925,-4.027 -9.2,-3.894 -16.992,-10.368 -22.509,-18.53 -5.517,-8.155 -8.753,-18.064 -8.748,-28.625 l 0,-318.114 c -0.002,-7.035 1.432,-13.796 4.027,-19.926 3.894,-9.2 10.368,-16.991 18.531,-22.508 8.154,-5.518 18.064,-8.754 28.624,-8.749 l 318.11401,0 c 7.036,-0.002 13.797,1.432 19.927,4.027 9.2,3.895 16.991,10.369 22.507,18.532 5.517,8.155 8.753,18.064 8.748,28.624 l -11.5,0"
       style="fill:#1f545d;fill-opacity:1;fill-rule:nonzero;stroke:none"
       id="path186"
       inkscape:connector-curvature="0" /></g></svg>